<svg xmlns="http://www.w3.org/2000/svg" version="1.1" xmlns:xlink="http://www.w3.org/1999/xlink" xmlns:svgjs="http://svgjs.com/svgjs" width="2560" height="1440" preserveAspectRatio="none" viewBox="0 0 2560 1440"><g mask="url(&quot;#SvgjsMask1048&quot;)" fill="none"><rect width="2560" height="1440" x="0" y="0" fill="rgba(18, 18, 18, 1)"></rect><path d="M0,641.223C150.497,657.926,315.089,770.365,442.535,688.598C569.962,606.843,548.043,413.739,583.85,266.635C612.882,147.363,644.056,31.281,632.275,-90.907C620.055,-217.647,579.871,-336.716,515.105,-446.341C439.472,-574.36,366.355,-721.806,227.745,-775.627C86.817,-830.348,-78.595,-796.339,-214.208,-729.525C-339.676,-667.71,-396.91,-528.996,-488.103,-422.944C-578.867,-317.391,-702.602,-238.955,-748.926,-107.679C-800.416,38.235,-831.016,209.62,-759.794,346.986C-689.066,483.399,-526.898,541.418,-383.609,596.908C-261.094,644.353,-130.579,626.731,0,641.223" fill="#0c0c0c"></path><path d="M2560 2641.044C2783.642 2642.456 2877.273 2344.828 3050.923 2203.891 3199.849 2083.02 3401.811 2032.873 3506.973 1872.468 3620.42 1699.426 3718.5640000000003 1479.463 3654.947 1282.57 3591.5860000000002 1086.467 3343.207 1032.098 3190.672 893.519 3061.277 775.962 2979.795 615.516 2827.072 530.437 2647.297 430.288 2437.749 294.99199999999996 2244.823 366.605 2050.443 438.75800000000004 2043.625 718.248 1905.216 872.626 1763.17 1031.06 1491.062 1073.959 1428.339 1277.292 1365.543 1480.86 1471.909 1706.612 1594.127 1881.099 1706.188 2041.0839999999998 1919.536 2076.936 2073.045 2197.716 2249.126 2336.256 2335.955 2639.629 2560 2641.044" fill="#181818"></path></g><defs><mask id="SvgjsMask1048"><rect width="2560" height="1440" fill="#ffffff"></rect></mask></defs></svg>