<svg xmlns="http://www.w3.org/2000/svg" version="1.1" xmlns:xlink="http://www.w3.org/1999/xlink" xmlns:svgjs="http://svgjs.com/svgjs" width="2560" height="1440" preserveAspectRatio="none" viewBox="0 0 2560 1440"><g mask="url(&quot;#SvgjsMask1015&quot;)" fill="none"><rect width="2560" height="1440" x="0" y="0" fill="rgba(18, 18, 18, 1)"></rect><path d="M2645.333333333333 1440L0 1440 L0 309.31Q263.39 444.7, 128 708.08Q121.92 488.67, 341.3333333333333 482.59Q339.46 352.72, 469.3333333333333 350.85Q519.47 272.99, 597.3333333333333 323.13Q701.46 299.26, 725.3333333333333 403.39Q884.87 434.93, 853.3333333333333 594.46Q1028.79 641.92, 981.3333333333333 817.38Q962.38 585.09, 1194.6666666666665 566.13Q1261.23 419.36, 1407.9999999999998 485.93Q1503.91 453.84, 1535.9999999999998 549.75Q1678.92 479.33, 1749.333333333333 622.25Q1775.84 435.42, 1962.6666666666663 461.93Q2058.26 344.19, 2175.9999999999995 439.78Q2360.61 411.05, 2389.333333333333 595.66Q2540.47 618.79, 2517.333333333333 769.93Q2446.2 570.79, 2645.333333333333 499.66z" fill="rgba(33, 0, 81, 1)"></path><path d="M2688 1440L0 1440 L0 852.36Q87.86 812.22, 128 900.08Q237.28 881.36, 256 990.64Q298.73 820.04, 469.3333333333333 862.77Q490.24 670.34, 682.6666666666666 691.25Q782.82 578.07, 896 678.23Q972.1 626.33, 1024 702.43Q1271.05 736.14, 1237.3333333333333 983.19Q1191.25 809.11, 1365.3333333333333 763.03Q1442.74 627.1, 1578.6666666666665 704.51Q1657.59 655.43, 1706.6666666666665 734.35Q1994.3 808.65, 1919.9999999999998 1096.29Q1813.06 861.36, 2047.9999999999998 754.42Q2344.51 837.59, 2261.333333333333 1134.1Q2205.34 864.77, 2474.6666666666665 808.78Q2550.46 671.24, 2688 747.04z" fill="rgba(62, 0, 151, 1)"></path><path d="M2773.3333333333335 1440L0 1440 L0 1479.51Q-101.5 1250.01, 128 1148.51Q433.85 1241.02, 341.3333333333333 1546.87Q255 1247.2, 554.6666666666666 1160.87Q636.04 1028.91, 768 1110.28Q874.37 1088.64, 896 1195.01Q1083.68 1169.36, 1109.3333333333333 1357.04Q1171.08 1205.45, 1322.6666666666665 1267.2Q1414.87 1231.4, 1450.6666666666665 1323.6Q1599.88 1259.48, 1663.9999999999998 1408.7Q1754.9 1286.27, 1877.333333333333 1377.17Q1878.36 1250.2, 2005.333333333333 1251.22Q1992.92 1110.81, 2133.333333333333 1098.4Q2225.31 977.04, 2346.6666666666665 1069.02Q2477.84 986.86, 2560 1118.03Q2852.23 1196.92, 2773.3333333333335 1489.15z" fill="rgba(98, 0, 238, 1)"></path></g><defs><mask id="SvgjsMask1015"><rect width="2560" height="1440" fill="#ffffff"></rect></mask></defs></svg>