<svg xmlns="http://www.w3.org/2000/svg" version="1.1" xmlns:xlink="http://www.w3.org/1999/xlink" xmlns:svgjs="http://svgjs.com/svgjs" width="2560" height="1440" preserveAspectRatio="none" viewBox="0 0 2560 1440"><g mask="url(&quot;#SvgjsMask1025&quot;)" fill="none"><rect width="2560" height="1440" x="0" y="0" fill="rgba(255, 255, 255, 1)"></rect><path d="M2645.3333333333335 1440L0 1440 L0 694.6Q20.49 587.09, 128 607.57Q100.22 451.79, 256 424.01Q320.06 274.73, 469.3333333333333 338.79Q549.78 291.24, 597.3333333333333 371.69Q664.1 225.13, 810.6666666666665 291.9Q904.9 258.13, 938.6666666666665 352.36Q1233.24 433.6, 1151.9999999999998 728.17Q1033.31 481.48, 1279.9999999999998 362.79Q1481.91 436.71, 1407.9999999999998 638.62Q1523.34 625.96, 1535.9999999999998 741.31Q1563.67 555.64, 1749.333333333333 583.31Q1719.46 425.43, 1877.333333333333 395.56Q1970.31 275.2, 2090.6666666666665 368.18Q2256.73 320.91, 2304 486.97Q2514.91 484.55, 2517.3333333333335 695.46Q2570.33 620.46, 2645.3333333333335 673.45z" fill="rgba(255, 227, 115, 1)"></path><path d="M2687.9999999999995 1440L0 1440 L0 836.98Q186.86 895.84, 128 1082.7Q108.62 935.32, 256 915.94Q238.51 770.45, 384 752.96Q463.71 619.34, 597.3333333333333 699.05Q743.15 631.54, 810.6666666666665 777.36Q1080.52 833.88, 1023.9999999999998 1103.74Q948.91 900.65, 1151.9999999999998 825.56Q1163.1 708.66, 1279.9999999999998 719.76Q1328.95 640.71, 1407.9999999999998 689.66Q1547.08 615.41, 1621.333333333333 754.49Q1926.24 846.06, 1834.6666666666663 1150.97Q1815.48 1003.79, 1962.6666666666663 984.6Q1927.11 821.04, 2090.666666666666 785.48Q2108.28 675.09, 2218.666666666666 692.7Q2385.04 731.07, 2346.666666666666 897.44Q2589.97 927.41, 2559.9999999999995 1170.71Q2429.86 912.58, 2687.9999999999995 782.44z" fill="rgba(252, 156, 84, 1)"></path><path d="M2730.6666666666665 1440L0 1440 L0 1478.79Q-38.68 1226.78, 213.33333333333331 1188.1Q244.14 1090.9, 341.3333333333333 1121.71Q460.02 1027.06, 554.6666666666666 1145.75Q626.26 1004.01, 768 1075.61Q936.77 1031.05, 981.3333333333333 1199.82Q1248.83 1253.98, 1194.6666666666665 1521.48Q1180.93 1379.74, 1322.6666666666665 1366Q1292.76 1208.1, 1450.6666666666665 1178.19Q1529.47 1043.66, 1663.9999999999998 1122.46Q1740.92 1071.38, 1791.9999999999998 1148.3Q2055.54 1198.51, 2005.333333333333 1462.05Q1948.11 1276.83, 2133.333333333333 1219.61Q2383.19 1341.47, 2261.333333333333 1591.33Q2247.05 1449.05, 2389.333333333333 1434.76Q2304.38 1221.8, 2517.333333333333 1136.85Q2850.49 1256.68, 2730.6666666666665 1589.84z" fill="rgba(253, 94, 83, 1)"></path></g><defs><mask id="SvgjsMask1025"><rect width="2560" height="1440" fill="#ffffff"></rect></mask></defs></svg>